<?xml version="1.0" standalone="no"?><svg xmlns:xlink="http://www.w3.org/1999/xlink" xmlns="http://www.w3.org/2000/svg" viewBox="0 0 1000 1000" preserveAspectRatio="xMaxYMax slice"><g transform="scale(2.2872827081427265)"><rect x="0" y="0" width="437.20000000000005" height="437.20000000000005" fill="#B09E69"/><rect x="0" y="0" width="62.46" height="62.46" fill="#bba65e"/><path d="M 0 62.46 A 62.46 62.46 0 0 1  62.46 0 L 62.46 62.46" fill="#dfc037"/><rect x="62.45714285714286" y="0" width="62.45714285714286" height="62.45714285714286" fill="#B09E69"/><rect x="62.46" y="0" width="31.23" height="31.23" fill="#c1aa57"/><path d="M 62.46 0 A 31.23 31.23 0 0 1 93.69 31.23 L 62.46 31.23" fill="#d1b646"/><rect x="93.69" y="0" width="31.23" height="31.23" fill="#fcd517"/><path d="M 93.69 0 A 31.23 31.23 0 0 0 124.92 31.23 L 124.92 0" fill="#e4c331"/><rect x="62.46" y="31.23" width="31.23" height="31.23" fill="#d4b842"/><path d="M 62.46 31.23 A 31.23 31.23 0 0 0 93.69 62.46 L 93.69 31.23" fill="#d9bc3d"/><rect x="93.69" y="31.23" width="31.23" height="31.23" fill="#c4ac54"/><path d="M 93.69 31.23 A 31.23 31.23 0 0 0 124.92 62.46 L 124.92 31.23" fill="#f3ce21"/><rect x="124.91428571428573" y="0" width="62.45714285714286" height="62.45714285714286" fill="#B09E69"/><rect x="124.91" y="0" width="31.23" height="31.23" fill="#f3ce21"/><path d="M 124.91 31.23 A 31.23 31.23 0 0 1  156.14 0 L 156.14 31.23" fill="#cfb448"/><rect x="156.14" y="0" width="31.23" height="31.23" fill="#d9bc3c"/><path d="M 156.14 0 A 31.23 31.23 0 0 1 187.36999999999998 31.23 L 156.14 31.23" fill="#b4a165"/><rect x="124.91" y="31.23" width="31.23" height="31.23" fill="#e2c233"/><path d="M 124.91 31.23 A 31.23 31.23 0 0 1  156.14 62.46 L 124.91 31.23 A 31.23 31.23 0 0 0 156.14 62.46" fill="#ccb24b"/><rect x="156.14" y="31.23" width="31.23" height="31.23" fill="#e1c134"/><path d="M 156.14 62.46 A 31.23 31.23 0 0 1  187.36999999999998 31.23 L 187.36999999999998 62.46" fill="#f1cd24"/><rect x="187.3714285714286" y="0" width="62.45714285714286" height="62.45714285714286" fill="#B09E69"/><rect x="187.37" y="0" width="31.23" height="31.23" fill="#e3c332"/><path d="M 187.37 31.23 A 31.23 31.23 0 0 1  218.6 0 L 187.37 31.23 A 31.23 31.23 0 0 0 218.6 0" fill="#bfa959"/><rect x="218.6" y="0" width="31.23" height="31.23" fill="#b19f68"/><path d="M 218.6 0 A 31.23 31.23 0 0 0 249.82999999999998 31.23 L 249.82999999999998 0" fill="#d3b744"/><rect x="187.37" y="31.23" width="31.23" height="31.23" fill="#b9a55f"/><path d="M 187.37 31.23 A 31.23 31.23 0 0 1  218.6 62.46 L 187.37 31.23 A 31.23 31.23 0 0 0 218.6 62.46" fill="#c1aa57"/><rect x="218.6" y="31.23" width="31.23" height="31.23" fill="#d2b744"/><path d="M 218.6 31.23 A 31.23 31.23 0 0 0 249.82999999999998 62.46 L 249.82999999999998 31.23" fill="#d2b744"/><rect x="249.83" y="0" width="62.46" height="62.46" fill="#eac82a"/><path d="M 249.83 0 A 62.46 62.46 0 0 1  312.29 62.46 L 249.83 0 A 62.46 62.46 0 0 0 312.29 62.46" fill="#f5d01f"/><rect x="312.29" y="0" width="62.46" height="62.46" fill="#c0a958"/><path d="M 312.29 0 A 62.46 62.46 0 0 1 374.75 62.46 L 312.29 62.46" fill="#eac82b"/><rect x="374.74" y="0" width="62.46" height="62.46" fill="#cab14d"/><path d="M 374.74 62.46 A 62.46 62.46 0 0 0 437.2 0 L 374.74 0" fill="#c9b04e"/><rect x="0" y="62.46" width="62.46" height="62.46" fill="#d5b941"/><path d="M 0 124.92 A 62.46 62.46 0 0 0 62.46 62.46 L 0 62.46" fill="#e0c036"/><rect x="62.45714285714286" y="62.45714285714286" width="62.45714285714286" height="62.45714285714286" fill="#B09E69"/><rect x="62.46" y="62.46" width="31.23" height="31.23" fill="#fed615"/><path d="M 62.46 62.46 A 31.23 31.23 0 0 1  93.69 93.69 L 62.46 62.46 A 31.23 31.23 0 0 0 93.69 93.69" fill="#f5d01f"/><rect x="93.69" y="62.46" width="31.23" height="31.23" fill="#e4c431"/><path d="M 93.69 93.69 A 31.23 31.23 0 0 1  124.92 62.46 L 93.69 93.69 A 31.23 31.23 0 0 0 124.92 62.46" fill="#bfa958"/><rect x="62.46" y="93.69" width="31.23" height="31.23" fill="#e4c331"/><path d="M 62.46 93.69 A 31.23 31.23 0 0 0 93.69 124.92 L 93.69 93.69" fill="#f8d21c"/><rect x="93.69" y="93.69" width="31.23" height="31.23" fill="#ecca28"/><path d="M 93.69 93.69 A 31.23 31.23 0 0 0 124.92 124.92 L 124.92 93.69" fill="#e8c72c"/><rect x="124.91428571428573" y="62.45714285714286" width="62.45714285714286" height="62.45714285714286" fill="#B09E69"/><rect x="124.91" y="62.46" width="31.23" height="31.23" fill="#ebc82a"/><path d="M 124.91 93.69 A 31.23 31.23 0 0 1  156.14 62.46 L 124.91 93.69 A 31.23 31.23 0 0 0 156.14 62.46" fill="#f9d31b"/><rect x="156.14" y="62.46" width="31.23" height="31.23" fill="#bca75c"/><path d="M 156.14 93.69 A 31.23 31.23 0 0 1  187.36999999999998 62.46 L 187.36999999999998 93.69" fill="#ecca28"/><rect x="124.91" y="93.69" width="31.23" height="31.23" fill="#bba65d"/><path d="M 124.91 93.69 A 31.23 31.23 0 0 0 156.14 124.92 L 156.14 93.69" fill="#e7c62e"/><rect x="156.14" y="93.69" width="31.23" height="31.23" fill="#f7d11d"/><path d="M 156.14 124.92 A 31.23 31.23 0 0 0 187.36999999999998 93.69 L 156.14 93.69" fill="#b3a066"/><rect x="187.3714285714286" y="62.45714285714286" width="62.45714285714286" height="62.45714285714286" fill="#B09E69"/><rect x="187.37" y="62.46" width="31.23" height="31.23" fill="#b8a460"/><path d="M 187.37 62.46 A 31.23 31.23 0 0 1  218.6 93.69 L 187.37 62.46 A 31.23 31.23 0 0 0 218.6 93.69" fill="#b3a066"/><rect x="218.6" y="62.46" width="31.23" height="31.23" fill="#bda85b"/><path d="M 218.6 93.69 A 31.23 31.23 0 0 1  249.82999999999998 62.46 L 218.6 93.69 A 31.23 31.23 0 0 0 249.82999999999998 62.46" fill="#b5a164"/><rect x="187.37" y="93.69" width="31.23" height="31.23" fill="#e0c135"/><path d="M 187.37 124.92 A 31.23 31.23 0 0 1  218.6 93.69 L 218.6 124.92" fill="#efcb26"/><rect x="218.6" y="93.69" width="31.23" height="31.23" fill="#b4a164"/><path d="M 218.6 93.69 A 31.23 31.23 0 0 1 249.82999999999998 124.92 L 218.6 124.92" fill="#c6ae51"/><rect x="249.82857142857145" y="62.45714285714286" width="62.45714285714286" height="62.45714285714286" fill="#B09E69"/><rect x="249.83" y="62.46" width="31.23" height="31.23" fill="#ecc928"/><path d="M 249.83 62.46 A 31.23 31.23 0 0 1  281.06 93.69 L 249.83 62.46 A 31.23 31.23 0 0 0 281.06 93.69" fill="#e6c52f"/><rect x="281.06" y="62.46" width="31.23" height="31.23" fill="#fdd616"/><path d="M 281.06 62.46 A 31.23 31.23 0 0 1  312.29 93.69 L 281.06 62.46 A 31.23 31.23 0 0 0 312.29 93.69" fill="#fad319"/><rect x="249.83" y="93.69" width="31.23" height="31.23" fill="#bea85a"/><path d="M 249.83 93.69 A 31.23 31.23 0 0 0 281.06 124.92 L 281.06 93.69" fill="#ecca28"/><rect x="281.06" y="93.69" width="31.23" height="31.23" fill="#c2ab56"/><path d="M 281.06 93.69 A 31.23 31.23 0 0 0 312.29 124.92 L 312.29 93.69" fill="#e9c72b"/><rect x="312.28571428571433" y="62.45714285714286" width="62.45714285714286" height="62.45714285714286" fill="#B09E69"/><rect x="312.29" y="62.46" width="31.23" height="31.23" fill="#f3ce21"/><path d="M 312.29 62.46 A 31.23 31.23 0 0 1 343.52000000000004 93.69 L 312.29 93.69" fill="#d8bb3e"/><rect x="343.51" y="62.46" width="31.23" height="31.23" fill="#f0cc24"/><path d="M 343.51 93.69 A 31.23 31.23 0 0 0 374.74 62.46 L 343.51 62.46" fill="#fad319"/><rect x="312.29" y="93.69" width="31.23" height="31.23" fill="#e8c62d"/><path d="M 312.29 93.69 A 31.23 31.23 0 0 1  343.52000000000004 124.92 L 312.29 93.69 A 31.23 31.23 0 0 0 343.52000000000004 124.92" fill="#f6d11e"/><rect x="343.51" y="93.69" width="31.23" height="31.23" fill="#c5ad52"/><path d="M 343.51 93.69 A 31.23 31.23 0 0 1 374.74 124.92 L 343.51 124.92" fill="#fbd419"/><rect x="374.74" y="62.46" width="62.46" height="62.46" fill="#d0b547"/><path d="M 374.74 62.46 A 62.46 62.46 0 0 1 437.2 124.92 L 374.74 124.92" fill="#c8af50"/><rect x="0" y="124.91" width="62.46" height="62.46" fill="#f7d21c"/><path d="M 0 124.91 A 62.46 62.46 0 0 1  62.46 187.37 L 0 124.91 A 62.46 62.46 0 0 0 62.46 187.37" fill="#dcbe39"/><rect x="62.46" y="124.91" width="62.46" height="62.46" fill="#cfb547"/><path d="M 62.46 187.37 A 62.46 62.46 0 0 1  124.92 124.91 L 62.46 187.37 A 62.46 62.46 0 0 0 124.92 124.91" fill="#cbb24b"/><rect x="124.91" y="124.91" width="62.46" height="62.46" fill="#cab14d"/><path d="M 124.91 187.37 A 62.46 62.46 0 0 1  187.37 124.91 L 124.91 187.37 A 62.46 62.46 0 0 0 187.37 124.91" fill="#fbd418"/><rect x="187.3714285714286" y="124.91428571428573" width="62.45714285714286" height="62.45714285714286" fill="#B09E69"/><rect x="187.37" y="124.91" width="31.23" height="31.23" fill="#c0a958"/><path d="M 187.37 156.14 A 31.23 31.23 0 0 0 218.6 124.91 L 187.37 124.91" fill="#f7d11d"/><rect x="218.6" y="124.91" width="31.23" height="31.23" fill="#d6b940"/><path d="M 218.6 124.91 A 31.23 31.23 0 0 1 249.82999999999998 156.14 L 218.6 156.14" fill="#f8d21c"/><rect x="187.37" y="156.14" width="31.23" height="31.23" fill="#e5c430"/><path d="M 187.37 187.36999999999998 A 31.23 31.23 0 0 1  218.6 156.14 L 187.37 187.36999999999998 A 31.23 31.23 0 0 0 218.6 156.14" fill="#dabc3c"/><rect x="218.6" y="156.14" width="31.23" height="31.23" fill="#bea85a"/><path d="M 218.6 156.14 A 31.23 31.23 0 0 1  249.82999999999998 187.36999999999998 L 218.6 156.14 A 31.23 31.23 0 0 0 249.82999999999998 187.36999999999998" fill="#ecc928"/><rect x="249.83" y="124.91" width="62.46" height="62.46" fill="#e4c431"/><path d="M 249.83 124.91 A 62.46 62.46 0 0 0 312.29 187.37 L 312.29 124.91" fill="#e4c431"/><rect x="312.28571428571433" y="124.91428571428573" width="62.45714285714286" height="62.45714285714286" fill="#B09E69"/><rect x="312.29" y="124.91" width="31.23" height="31.23" fill="#ebc929"/><path d="M 312.29 124.91 A 31.23 31.23 0 0 1 343.52000000000004 156.14 L 312.29 156.14" fill="#f2cd22"/><rect x="343.51" y="124.91" width="31.23" height="31.23" fill="#c8af4f"/><path d="M 343.51 124.91 A 31.23 31.23 0 0 0 374.74 156.14 L 374.74 124.91" fill="#e6c52f"/><rect x="312.29" y="156.14" width="31.23" height="31.23" fill="#cfb448"/><path d="M 312.29 156.14 A 31.23 31.23 0 0 1  343.52000000000004 187.36999999999998 L 312.29 156.14 A 31.23 31.23 0 0 0 343.52000000000004 187.36999999999998" fill="#d7ba3f"/><rect x="343.51" y="156.14" width="31.23" height="31.23" fill="#d4b842"/><path d="M 343.51 156.14 A 31.23 31.23 0 0 1  374.74 187.36999999999998 L 343.51 156.14 A 31.23 31.23 0 0 0 374.74 187.36999999999998" fill="#e7c62e"/><rect x="374.7428571428572" y="124.91428571428573" width="62.45714285714286" height="62.45714285714286" fill="#B09E69"/><rect x="374.74" y="124.91" width="31.23" height="31.23" fill="#fad419"/><path d="M 374.74 156.14 A 31.23 31.23 0 0 1  405.97 124.91 L 405.97 156.14" fill="#b8a460"/><rect x="405.97" y="124.91" width="31.23" height="31.23" fill="#c0aa58"/><path d="M 405.97 124.91 A 31.23 31.23 0 0 1  437.20000000000005 156.14 L 405.97 124.91 A 31.23 31.23 0 0 0 437.20000000000005 156.14" fill="#c1aa57"/><rect x="374.74" y="156.14" width="31.23" height="31.23" fill="#d6ba40"/><path d="M 374.74 156.14 A 31.23 31.23 0 0 1  405.97 187.36999999999998 L 374.74 156.14 A 31.23 31.23 0 0 0 405.97 187.36999999999998" fill="#eecb26"/><rect x="405.97" y="156.14" width="31.23" height="31.23" fill="#b19f68"/><path d="M 405.97 156.14 A 31.23 31.23 0 0 1 437.20000000000005 187.36999999999998 L 405.97 187.36999999999998" fill="#f8d21b"/><rect x="0" y="187.37" width="62.46" height="62.46" fill="#b7a362"/><path d="M 0 187.37 A 62.46 62.46 0 0 0 62.46 249.83 L 62.46 187.37" fill="#e4c332"/><rect x="62.45714285714286" y="187.3714285714286" width="62.45714285714286" height="62.45714285714286" fill="#B09E69"/><rect x="62.46" y="187.37" width="31.23" height="31.23" fill="#e3c332"/><path d="M 62.46 218.6 A 31.23 31.23 0 0 1  93.69 187.37 L 93.69 218.6" fill="#cab04d"/><rect x="93.69" y="187.37" width="31.23" height="31.23" fill="#fbd418"/><path d="M 93.69 187.37 A 31.23 31.23 0 0 1  124.92 218.6 L 93.69 187.37 A 31.23 31.23 0 0 0 124.92 218.6" fill="#c0a958"/><rect x="62.46" y="218.6" width="31.23" height="31.23" fill="#b8a460"/><path d="M 62.46 218.6 A 31.23 31.23 0 0 0 93.69 249.82999999999998 L 93.69 218.6" fill="#f4cf20"/><rect x="93.69" y="218.6" width="31.23" height="31.23" fill="#c2ab55"/><path d="M 93.69 218.6 A 31.23 31.23 0 0 0 124.92 249.82999999999998 L 124.92 218.6" fill="#f4cf20"/><rect x="124.91" y="187.37" width="62.46" height="62.46" fill="#b7a362"/><path d="M 124.91 187.37 A 62.46 62.46 0 0 1 187.37 249.83 L 124.91 249.83" fill="#fdd616"/><rect x="187.3714285714286" y="187.3714285714286" width="62.45714285714286" height="62.45714285714286" fill="#B09E69"/><rect x="187.37" y="187.37" width="31.23" height="31.23" fill="#eac82a"/><path d="M 187.37 218.6 A 31.23 31.23 0 0 0 218.6 187.37 L 187.37 187.37" fill="#c7af50"/><rect x="218.6" y="187.37" width="31.23" height="31.23" fill="#cdb34a"/><path d="M 218.6 218.6 A 31.23 31.23 0 0 1  249.82999999999998 187.37 L 249.82999999999998 218.6" fill="#f2ce22"/><rect x="187.37" y="218.6" width="31.23" height="31.23" fill="#cfb547"/><path d="M 187.37 218.6 A 31.23 31.23 0 0 0 218.6 249.82999999999998 L 218.6 218.6" fill="#e9c72c"/><rect x="218.6" y="218.6" width="31.23" height="31.23" fill="#e9c72c"/><path d="M 218.6 218.6 A 31.23 31.23 0 0 1  249.82999999999998 249.82999999999998 L 218.6 218.6 A 31.23 31.23 0 0 0 249.82999999999998 249.82999999999998" fill="#b6a263"/><rect x="249.82857142857145" y="187.3714285714286" width="62.45714285714286" height="62.45714285714286" fill="#B09E69"/><rect x="249.83" y="187.37" width="31.23" height="31.23" fill="#e3c332"/><path d="M 249.83 218.6 A 31.23 31.23 0 0 1  281.06 187.37 L 281.06 218.6" fill="#c5ad52"/><rect x="281.06" y="187.37" width="31.23" height="31.23" fill="#e8c62d"/><path d="M 281.06 187.37 A 31.23 31.23 0 0 1  312.29 218.6 L 281.06 187.37 A 31.23 31.23 0 0 0 312.29 218.6" fill="#cab14d"/><rect x="249.83" y="218.6" width="31.23" height="31.23" fill="#ceb448"/><path d="M 249.83 218.6 A 31.23 31.23 0 0 0 281.06 249.82999999999998 L 281.06 218.6" fill="#f8d21b"/><rect x="281.06" y="218.6" width="31.23" height="31.23" fill="#e3c233"/><path d="M 281.06 218.6 A 31.23 31.23 0 0 1  312.29 249.82999999999998 L 281.06 218.6 A 31.23 31.23 0 0 0 312.29 249.82999999999998" fill="#c3ac55"/><rect x="312.28571428571433" y="187.3714285714286" width="62.45714285714286" height="62.45714285714286" fill="#B09E69"/><rect x="312.29" y="187.37" width="31.23" height="31.23" fill="#f9d31a"/><path d="M 312.29 218.6 A 31.23 31.23 0 0 0 343.52000000000004 187.37 L 312.29 187.37" fill="#c2ab55"/><rect x="343.51" y="187.37" width="31.23" height="31.23" fill="#f8d21c"/><path d="M 343.51 187.37 A 31.23 31.23 0 0 1 374.74 218.6 L 343.51 218.6" fill="#c0a958"/><rect x="312.29" y="218.6" width="31.23" height="31.23" fill="#b8a460"/><path d="M 312.29 249.82999999999998 A 31.23 31.23 0 0 1  343.52000000000004 218.6 L 312.29 249.82999999999998 A 31.23 31.23 0 0 0 343.52000000000004 218.6" fill="#cfb448"/><rect x="343.51" y="218.6" width="31.23" height="31.23" fill="#d1b646"/><path d="M 343.51 249.82999999999998 A 31.23 31.23 0 0 0 374.74 218.6 L 343.51 218.6" fill="#dbbd3b"/><rect x="374.74" y="187.37" width="62.46" height="62.46" fill="#d6b941"/><path d="M 374.74 187.37 A 62.46 62.46 0 0 1 437.2 249.83 L 374.74 249.83" fill="#bda75b"/><rect x="0" y="249.82857142857145" width="62.45714285714286" height="62.45714285714286" fill="#B09E69"/><rect x="0" y="249.83" width="31.23" height="31.23" fill="#cbb24c"/><path d="M 0 249.83 A 31.23 31.23 0 0 1  31.23 281.06 L 0 249.83 A 31.23 31.23 0 0 0 31.23 281.06" fill="#d7ba3f"/><rect x="31.23" y="249.83" width="31.23" height="31.23" fill="#bba65d"/><path d="M 31.23 249.83 A 31.23 31.23 0 0 1  62.46 281.06 L 31.23 249.83 A 31.23 31.23 0 0 0 62.46 281.06" fill="#e7c62e"/><rect x="0" y="281.06" width="31.23" height="31.23" fill="#bba65e"/><path d="M 0 281.06 A 31.23 31.23 0 0 1  31.23 312.29 L 0 281.06 A 31.23 31.23 0 0 0 31.23 312.29" fill="#f3ce21"/><rect x="31.23" y="281.06" width="31.23" height="31.23" fill="#f6d11e"/><path d="M 31.23 312.29 A 31.23 31.23 0 0 0 62.46 281.06 L 31.23 281.06" fill="#f1cd23"/><rect x="62.46" y="249.83" width="62.46" height="62.46" fill="#fed715"/><path d="M 62.46 312.29 A 62.46 62.46 0 0 1  124.92 249.83 L 62.46 312.29 A 62.46 62.46 0 0 0 124.92 249.83" fill="#c8af4f"/><rect x="124.91" y="249.83" width="62.46" height="62.46" fill="#b3a066"/><path d="M 124.91 249.83 A 62.46 62.46 0 0 0 187.37 312.29 L 187.37 249.83" fill="#e9c72c"/><rect x="187.37" y="249.83" width="62.46" height="62.46" fill="#c6ae52"/><path d="M 187.37 312.29 A 62.46 62.46 0 0 1  249.83 249.83 L 187.37 312.29 A 62.46 62.46 0 0 0 249.83 249.83" fill="#ebc82a"/><rect x="249.83" y="249.83" width="62.46" height="62.46" fill="#dfc037"/><path d="M 249.83 249.83 A 62.46 62.46 0 0 0 312.29 312.29 L 312.29 249.83" fill="#c8af4f"/><rect x="312.29" y="249.83" width="62.46" height="62.46" fill="#e2c233"/><path d="M 312.29 312.29 A 62.46 62.46 0 0 1  374.75 249.83 L 312.29 312.29 A 62.46 62.46 0 0 0 374.75 249.83" fill="#d6b940"/><rect x="374.74" y="249.83" width="62.46" height="62.46" fill="#bea85a"/><path d="M 374.74 249.83 A 62.46 62.46 0 0 0 437.2 312.29 L 437.2 249.83" fill="#b4a165"/><rect x="0" y="312.28571428571433" width="62.45714285714286" height="62.45714285714286" fill="#B09E69"/><rect x="0" y="312.29" width="31.23" height="31.23" fill="#dfc036"/><path d="M 0 343.52000000000004 A 31.23 31.23 0 0 1  31.23 312.29 L 0 343.52000000000004 A 31.23 31.23 0 0 0 31.23 312.29" fill="#eecb26"/><rect x="31.23" y="312.29" width="31.23" height="31.23" fill="#f6d01e"/><path d="M 31.23 343.52000000000004 A 31.23 31.23 0 0 1  62.46 312.29 L 31.23 343.52000000000004 A 31.23 31.23 0 0 0 62.46 312.29" fill="#f6d11e"/><rect x="0" y="343.51" width="31.23" height="31.23" fill="#fcd518"/><path d="M 0 374.74 A 31.23 31.23 0 0 0 31.23 343.51 L 0 343.51" fill="#fbd419"/><rect x="31.23" y="343.51" width="31.23" height="31.23" fill="#e4c331"/><path d="M 31.23 343.51 A 31.23 31.23 0 0 0 62.46 374.74 L 62.46 343.51" fill="#bea85a"/><rect x="62.45714285714286" y="312.28571428571433" width="62.45714285714286" height="62.45714285714286" fill="#B09E69"/><rect x="62.46" y="312.29" width="31.23" height="31.23" fill="#bda75b"/><path d="M 62.46 312.29 A 31.23 31.23 0 0 0 93.69 343.52000000000004 L 93.69 312.29" fill="#ecc929"/><rect x="93.69" y="312.29" width="31.23" height="31.23" fill="#bba65d"/><path d="M 93.69 343.52000000000004 A 31.23 31.23 0 0 1  124.92 312.29 L 93.69 343.52000000000004 A 31.23 31.23 0 0 0 124.92 312.29" fill="#d3b744"/><rect x="62.46" y="343.51" width="31.23" height="31.23" fill="#ecc929"/><path d="M 62.46 374.74 A 31.23 31.23 0 0 1  93.69 343.51 L 62.46 374.74 A 31.23 31.23 0 0 0 93.69 343.51" fill="#f7d11d"/><rect x="93.69" y="343.51" width="31.23" height="31.23" fill="#cfb547"/><path d="M 93.69 343.51 A 31.23 31.23 0 0 1  124.92 374.74 L 93.69 343.51 A 31.23 31.23 0 0 0 124.92 374.74" fill="#ceb349"/><rect x="124.91428571428573" y="312.28571428571433" width="62.45714285714286" height="62.45714285714286" fill="#B09E69"/><rect x="124.91" y="312.29" width="31.23" height="31.23" fill="#d3b843"/><path d="M 124.91 343.52000000000004 A 31.23 31.23 0 0 1  156.14 312.29 L 124.91 343.52000000000004 A 31.23 31.23 0 0 0 156.14 312.29" fill="#b8a460"/><rect x="156.14" y="312.29" width="31.23" height="31.23" fill="#f0cc25"/><path d="M 156.14 312.29 A 31.23 31.23 0 0 1 187.36999999999998 343.52000000000004 L 156.14 343.52000000000004" fill="#d9bb3d"/><rect x="124.91" y="343.51" width="31.23" height="31.23" fill="#dcbe39"/><path d="M 124.91 343.51 A 31.23 31.23 0 0 1  156.14 374.74 L 124.91 343.51 A 31.23 31.23 0 0 0 156.14 374.74" fill="#dfc036"/><rect x="156.14" y="343.51" width="31.23" height="31.23" fill="#ddbe39"/><path d="M 156.14 343.51 A 31.23 31.23 0 0 1  187.36999999999998 374.74 L 156.14 343.51 A 31.23 31.23 0 0 0 187.36999999999998 374.74" fill="#ccb24b"/><rect x="187.37" y="312.29" width="62.46" height="62.46" fill="#b5a263"/><path d="M 187.37 312.29 A 62.46 62.46 0 0 1 249.83 374.75 L 187.37 374.75" fill="#bca75c"/><rect x="249.82857142857145" y="312.28571428571433" width="62.45714285714286" height="62.45714285714286" fill="#B09E69"/><rect x="249.83" y="312.29" width="31.23" height="31.23" fill="#b4a164"/><path d="M 249.83 312.29 A 31.23 31.23 0 0 1 281.06 343.52000000000004 L 249.83 343.52000000000004" fill="#d5b842"/><rect x="281.06" y="312.29" width="31.23" height="31.23" fill="#bfa958"/><path d="M 281.06 343.52000000000004 A 31.23 31.23 0 0 1  312.29 312.29 L 312.29 343.52000000000004" fill="#c6ae51"/><rect x="249.83" y="343.51" width="31.23" height="31.23" fill="#e0c135"/><path d="M 249.83 374.74 A 31.23 31.23 0 0 1  281.06 343.51 L 249.83 374.74 A 31.23 31.23 0 0 0 281.06 343.51" fill="#b5a164"/><rect x="281.06" y="343.51" width="31.23" height="31.23" fill="#bba65e"/><path d="M 281.06 374.74 A 31.23 31.23 0 0 1  312.29 343.51 L 281.06 374.74 A 31.23 31.23 0 0 0 312.29 343.51" fill="#b8a461"/><rect x="312.29" y="312.29" width="62.46" height="62.46" fill="#bba65d"/><path d="M 312.29 312.29 A 62.46 62.46 0 0 1 374.75 374.75 L 312.29 374.75" fill="#fbd419"/><rect x="374.7428571428572" y="312.28571428571433" width="62.45714285714286" height="62.45714285714286" fill="#B09E69"/><rect x="374.74" y="312.29" width="31.23" height="31.23" fill="#bea85a"/><path d="M 374.74 312.29 A 31.23 31.23 0 0 1  405.97 343.52000000000004 L 374.74 312.29 A 31.23 31.23 0 0 0 405.97 343.52000000000004" fill="#d5b941"/><rect x="405.97" y="312.29" width="31.23" height="31.23" fill="#cbb24c"/><path d="M 405.97 343.52000000000004 A 31.23 31.23 0 0 1  437.20000000000005 312.29 L 405.97 343.52000000000004 A 31.23 31.23 0 0 0 437.20000000000005 312.29" fill="#c0aa57"/><rect x="374.74" y="343.51" width="31.23" height="31.23" fill="#bea85a"/><path d="M 374.74 374.74 A 31.23 31.23 0 0 1  405.97 343.51 L 405.97 374.74" fill="#e9c72c"/><rect x="405.97" y="343.51" width="31.23" height="31.23" fill="#c1aa57"/><path d="M 405.97 374.74 A 31.23 31.23 0 0 0 437.20000000000005 343.51 L 405.97 343.51" fill="#bba65e"/><rect x="0" y="374.7428571428572" width="62.45714285714286" height="62.45714285714286" fill="#B09E69"/><rect x="0" y="374.74" width="31.23" height="31.23" fill="#c4ac54"/><path d="M 0 374.74 A 31.23 31.23 0 0 0 31.23 405.97 L 31.23 374.74" fill="#b7a362"/><rect x="31.23" y="374.74" width="31.23" height="31.23" fill="#e3c233"/><path d="M 31.23 374.74 A 31.23 31.23 0 0 0 62.46 405.97 L 62.46 374.74" fill="#dfc036"/><rect x="0" y="405.97" width="31.23" height="31.23" fill="#c5ad53"/><path d="M 0 437.20000000000005 A 31.23 31.23 0 0 1  31.23 405.97 L 0 437.20000000000005 A 31.23 31.23 0 0 0 31.23 405.97" fill="#b9a55f"/><rect x="31.23" y="405.97" width="31.23" height="31.23" fill="#e4c331"/><path d="M 31.23 437.20000000000005 A 31.23 31.23 0 0 1  62.46 405.97 L 31.23 437.20000000000005 A 31.23 31.23 0 0 0 62.46 405.97" fill="#e0c036"/><rect x="62.46" y="374.74" width="62.46" height="62.46" fill="#f4cf20"/><path d="M 62.46 437.2 A 62.46 62.46 0 0 1  124.92 374.74 L 124.92 437.2" fill="#cbb14c"/><rect x="124.91" y="374.74" width="62.46" height="62.46" fill="#e6c52e"/><path d="M 124.91 437.2 A 62.46 62.46 0 0 0 187.37 374.74 L 124.91 374.74" fill="#b5a263"/><rect x="187.3714285714286" y="374.7428571428572" width="62.45714285714286" height="62.45714285714286" fill="#B09E69"/><rect x="187.37" y="374.74" width="31.23" height="31.23" fill="#e7c62e"/><path d="M 187.37 405.97 A 31.23 31.23 0 0 0 218.6 374.74 L 187.37 374.74" fill="#e7c52e"/><rect x="218.6" y="374.74" width="31.23" height="31.23" fill="#dcbe3a"/><path d="M 218.6 374.74 A 31.23 31.23 0 0 1  249.82999999999998 405.97 L 218.6 374.74 A 31.23 31.23 0 0 0 249.82999999999998 405.97" fill="#dabd3b"/><rect x="187.37" y="405.97" width="31.23" height="31.23" fill="#f0cc24"/><path d="M 187.37 437.20000000000005 A 31.23 31.23 0 0 1  218.6 405.97 L 187.37 437.20000000000005 A 31.23 31.23 0 0 0 218.6 405.97" fill="#e2c233"/><rect x="218.6" y="405.97" width="31.23" height="31.23" fill="#c8b04f"/><path d="M 218.6 405.97 A 31.23 31.23 0 0 0 249.82999999999998 437.20000000000005 L 249.82999999999998 405.97" fill="#f9d31a"/><rect x="249.82857142857145" y="374.7428571428572" width="62.45714285714286" height="62.45714285714286" fill="#B09E69"/><rect x="249.83" y="374.74" width="31.23" height="31.23" fill="#d6b941"/><path d="M 249.83 405.97 A 31.23 31.23 0 0 0 281.06 374.74 L 249.83 374.74" fill="#e0c135"/><rect x="281.06" y="374.74" width="31.23" height="31.23" fill="#eac82b"/><path d="M 281.06 405.97 A 31.23 31.23 0 0 1  312.29 374.74 L 312.29 405.97" fill="#dabd3b"/><rect x="249.83" y="405.97" width="31.23" height="31.23" fill="#edca27"/><path d="M 249.83 405.97 A 31.23 31.23 0 0 1  281.06 437.20000000000005 L 249.83 405.97 A 31.23 31.23 0 0 0 281.06 437.20000000000005" fill="#dcbd3a"/><rect x="281.06" y="405.97" width="31.23" height="31.23" fill="#c6ae51"/><path d="M 281.06 405.97 A 31.23 31.23 0 0 1  312.29 437.20000000000005 L 281.06 405.97 A 31.23 31.23 0 0 0 312.29 437.20000000000005" fill="#e7c52e"/><rect x="312.28571428571433" y="374.7428571428572" width="62.45714285714286" height="62.45714285714286" fill="#B09E69"/><rect x="312.29" y="374.74" width="31.23" height="31.23" fill="#bba65d"/><path d="M 312.29 405.97 A 31.23 31.23 0 0 0 343.52000000000004 374.74 L 312.29 374.74" fill="#c9b04e"/><rect x="343.51" y="374.74" width="31.23" height="31.23" fill="#bca75c"/><path d="M 343.51 374.74 A 31.23 31.23 0 0 1  374.74 405.97 L 343.51 374.74 A 31.23 31.23 0 0 0 374.74 405.97" fill="#c8af4f"/><rect x="312.29" y="405.97" width="31.23" height="31.23" fill="#dcbd3a"/><path d="M 312.29 405.97 A 31.23 31.23 0 0 1 343.52000000000004 437.20000000000005 L 312.29 437.20000000000005" fill="#b19f68"/><rect x="343.51" y="405.97" width="31.23" height="31.23" fill="#c5ad53"/><path d="M 343.51 405.97 A 31.23 31.23 0 0 1  374.74 437.20000000000005 L 343.51 405.97 A 31.23 31.23 0 0 0 374.74 437.20000000000005" fill="#eac82b"/><rect x="374.74" y="374.74" width="62.46" height="62.46" fill="#e9c72c"/><path d="M 374.74 374.74 A 62.46 62.46 0 0 1 437.2 437.2 L 374.74 437.2" fill="#f5d01f"/></g></svg>